<svg width="60" height="42" viewBox="0 0 60 42" fill="none" xmlns="http://www.w3.org/2000/svg">
<g clip-path="url(#clip0_1_24)">
<path d="M25.0593 38H33.8121V9.63636H24.6715C21.9201 9.63636 19.5657 10.2042 17.6083 11.3398C15.6509 12.4663 14.1505 14.0866 13.1072 16.201C12.0639 18.3061 11.5422 20.8267 11.5422 23.7628C11.5422 26.7173 12.0685 29.261 13.1211 31.3938C14.1736 33.5174 15.7063 35.1516 17.7191 36.2965C19.7319 37.4322 22.1786 38 25.0593 38ZM30.3775 34.9531H25.2809C22.9357 34.9531 20.9922 34.5007 19.4502 33.5959C17.9083 32.6911 16.7588 31.4031 16.0017 29.7319C15.2446 28.0607 14.8661 26.071 14.8661 23.7628C14.8661 21.473 15.24 19.5018 15.9879 17.8491C16.7358 16.1871 17.8529 14.913 19.3395 14.0266C20.826 13.131 22.6772 12.6832 24.8931 12.6832H30.3775V34.9531Z" fill="#D9D9D9"/>
<path d="M30.6814 38V9.63636H40.2652C42.4811 9.63636 44.3 10.0149 45.7219 10.772C47.1438 11.5199 48.1963 12.5494 48.8796 13.8604C49.5628 15.1715 49.9044 16.6626 49.9044 18.3338C49.9044 20.005 49.5628 21.4869 48.8796 22.7795C48.1963 24.0721 47.1484 25.0877 45.7358 25.8263C44.3231 26.5558 42.5181 26.9205 40.3206 26.9205H32.565V23.8182H40.2098C41.724 23.8182 42.9428 23.5966 43.8661 23.1534C44.7986 22.7102 45.4726 22.0824 45.8881 21.2699C46.3128 20.4482 46.5252 19.4695 46.5252 18.3338C46.5252 17.1982 46.3128 16.2056 45.8881 15.3562C45.4634 14.5067 44.7848 13.8512 43.8522 13.3896C42.9197 12.9187 41.6871 12.6832 40.1544 12.6832H34.1161V38H30.6814ZM44.0323 25.2585L51.0124 38H47.0238L40.1544 25.2585H44.0323Z" fill="#D9D9D9"/>
</g>
<defs>
<clipPath id="clip0_1_24">
<rect width="60" height="42" fill="white"/>
</clipPath>
</defs>
</svg>
